<svg width="38" height="37" viewBox="0 0 38 37" fill="none" xmlns="http://www.w3.org/2000/svg">
<path d="M19.7683 36.6601C14.6072 36.6601 9.76458 34.6597 6.13241 31.0277C2.50023 27.3957 0.5 22.5528 0.5 17.3916C0.49923 13.8312 1.48506 10.3402 3.34808 7.30618C5.21109 4.27211 7.87841 1.81363 11.054 0.203615C11.3807 0.0370723 11.7492 -0.0295527 12.1135 0.012057C12.4779 0.0536668 12.8219 0.201668 13.1026 0.437585C13.3834 0.673502 13.5884 0.986885 13.6921 1.33861C13.7959 1.69034 13.7937 2.06483 13.6859 2.41533C12.7798 5.34225 12.6907 8.46116 13.4284 11.435C14.166 14.4089 15.7024 17.1246 17.8714 19.2887C19.4279 20.8568 21.28 22.1006 23.3205 22.9481C25.361 23.7956 27.5493 24.2299 29.7588 24.226C31.449 24.2272 33.1298 23.9737 34.7445 23.4739C35.095 23.3661 35.4695 23.3639 35.8213 23.4676C36.1731 23.5713 36.4865 23.7763 36.7224 24.0571C36.9584 24.3379 37.1064 24.6819 37.148 25.0463C37.1895 25.4107 37.1229 25.7793 36.9563 26.106C35.3462 29.2815 32.8877 31.9489 29.8537 33.8119C26.8196 35.6749 23.3287 36.6608 19.7683 36.6601V36.6601ZM10.9873 3.03758C8.52481 4.53585 6.49066 6.64426 5.08161 9.15886C3.67256 11.6735 2.93631 14.5091 2.94406 17.3916C2.94406 26.6686 10.4913 34.216 19.7683 34.216C22.6507 34.2238 25.4864 33.4876 28.0011 32.0785C30.5157 30.6695 32.6241 28.6353 34.1224 26.1728C32.6915 26.5039 31.2276 26.6708 29.759 26.6702V26.6702C27.2284 26.6751 24.722 26.1779 22.3849 25.2075C20.0478 24.2372 17.9264 22.8129 16.1434 21.0171C13.8272 18.7053 12.1383 15.8413 11.2361 12.6956C10.334 9.54982 10.2483 6.22607 10.9873 3.03803V3.03758Z" fill="black"/>
</svg>
